<svg width="250" height="235" viewBox="0 0 250 235" fill="none" xmlns="http://www.w3.org/2000/svg">
<g opacity="0.7">
<circle cx="10.5832" cy="19.5832" r="6.52777" fill="#F3F4F9"/>
<circle cx="41.9167" cy="19.5832" r="6.52777" fill="#F3F4F9"/>
<circle cx="73.2499" cy="19.5832" r="6.52777" fill="#F3F4F9"/>
<circle cx="104.583" cy="19.5832" r="6.52777" fill="#F3F4F9"/>
<circle cx="135.916" cy="19.5832" r="6.52777" fill="#F3F4F9"/>
<circle cx="167.25" cy="19.5832" r="6.52777" fill="#F3F4F9"/>
<circle cx="198.583" cy="19.5832" r="6.52777" fill="#F3F4F9"/>
<circle cx="229.916" cy="19.5832" r="6.52777" fill="#F3F4F9"/>
<circle cx="10.5832" cy="58.7502" r="6.52777" fill="#F3F4F9"/>
<circle cx="41.9167" cy="58.7502" r="6.52777" fill="#F3F4F9"/>
<circle cx="73.2499" cy="58.7502" r="6.52777" fill="#F3F4F9"/>
<circle cx="104.583" cy="58.7502" r="6.52777" fill="#F3F4F9"/>
<circle cx="135.916" cy="58.7502" r="6.52777" fill="#F3F4F9"/>
<circle cx="167.25" cy="58.7502" r="6.52777" fill="#F3F4F9"/>
<circle cx="198.583" cy="58.7502" r="6.52777" fill="#F3F4F9"/>
<circle cx="229.916" cy="58.7502" r="6.52777" fill="#F3F4F9"/>
<circle cx="10.5832" cy="97.9167" r="6.52777" fill="#F3F4F9"/>
<circle cx="41.9167" cy="97.9167" r="6.52777" fill="#F3F4F9"/>
<circle cx="73.2499" cy="97.9167" r="6.52777" fill="#F3F4F9"/>
<circle cx="104.583" cy="97.9167" r="6.52777" fill="#F3F4F9"/>
<circle cx="135.916" cy="97.9167" r="6.52777" fill="#F3F4F9"/>
<circle cx="167.25" cy="97.9167" r="6.52777" fill="#F3F4F9"/>
<circle cx="198.583" cy="97.9167" r="6.52777" fill="#F3F4F9"/>
<circle cx="229.916" cy="97.9167" r="6.52777" fill="#F3F4F9"/>
<circle cx="10.5832" cy="137.083" r="6.52777" fill="#F3F4F9"/>
<circle cx="41.9167" cy="137.083" r="6.52777" fill="#F3F4F9"/>
<circle cx="73.2499" cy="137.083" r="6.52777" fill="#F3F4F9"/>
<circle cx="104.583" cy="137.083" r="6.52777" fill="#F3F4F9"/>
<circle cx="135.916" cy="137.083" r="6.52777" fill="#F3F4F9"/>
<circle cx="167.25" cy="137.083" r="6.52777" fill="#F3F4F9"/>
<circle cx="198.583" cy="137.083" r="6.52777" fill="#F3F4F9"/>
<circle cx="229.916" cy="137.083" r="6.52777" fill="#F3F4F9"/>
<circle cx="10.5832" cy="176.249" r="6.52777" fill="#F3F4F9"/>
<circle cx="41.9167" cy="176.249" r="6.52777" fill="#F3F4F9"/>
<circle cx="73.2499" cy="176.249" r="6.52777" fill="#F3F4F9"/>
<circle cx="104.583" cy="176.249" r="6.52777" fill="#F3F4F9"/>
<circle cx="135.916" cy="176.249" r="6.52777" fill="#F3F4F9"/>
<circle cx="167.25" cy="176.249" r="6.52777" fill="#F3F4F9"/>
<circle cx="198.583" cy="176.249" r="6.52777" fill="#F3F4F9"/>
<circle cx="229.916" cy="176.249" r="6.52777" fill="#F3F4F9"/>
<circle cx="10.5832" cy="215.416" r="6.52777" fill="#F3F4F9"/>
<circle cx="41.9167" cy="215.416" r="6.52777" fill="#F3F4F9"/>
<circle cx="73.2499" cy="215.416" r="6.52777" fill="#F3F4F9"/>
<circle cx="104.583" cy="215.416" r="6.52777" fill="#F3F4F9"/>
<circle cx="135.916" cy="215.416" r="6.52777" fill="#F3F4F9"/>
<circle cx="167.25" cy="215.416" r="6.52777" fill="#F3F4F9"/>
<circle cx="198.583" cy="215.416" r="6.52777" fill="#F3F4F9"/>
<circle cx="229.916" cy="215.416" r="6.52777" fill="#F3F4F9"/>
</g>
</svg>
