<svg width="238" height="216" viewBox="0 0 238 216" fill="none" xmlns="http://www.w3.org/2000/svg">
<g opacity="0.7">
<circle cx="18" cy="18" r="5.99999" fill="#536FFF"/>
<circle cx="46.7998" cy="18" r="5.99999" fill="#536FFF"/>
<circle cx="75.5998" cy="18" r="5.99999" fill="#536FFF"/>
<circle cx="104.4" cy="18" r="5.99999" fill="#536FFF"/>
<circle cx="133.2" cy="18" r="5.99999" fill="#536FFF"/>
<circle cx="162" cy="18" r="5.99999" fill="#536FFF"/>
<circle cx="190.8" cy="18" r="5.99999" fill="#536FFF"/>
<circle cx="219.6" cy="18" r="5.99999" fill="#536FFF"/>
<circle cx="18" cy="53.9995" r="5.99999" fill="#536FFF"/>
<circle cx="46.8" cy="53.9995" r="5.99999" fill="#536FFF"/>
<circle cx="75.5998" cy="53.9995" r="5.99999" fill="#536FFF"/>
<circle cx="104.4" cy="53.9995" r="5.99999" fill="#536FFF"/>
<circle cx="133.2" cy="53.9995" r="5.99999" fill="#536FFF"/>
<circle cx="162" cy="53.9995" r="5.99999" fill="#536FFF"/>
<circle cx="190.8" cy="53.9995" r="5.99999" fill="#536FFF"/>
<circle cx="219.6" cy="53.9995" r="5.99999" fill="#536FFF"/>
<circle cx="18" cy="90.0005" r="5.99999" fill="#536FFF"/>
<circle cx="46.8" cy="90.0005" r="5.99999" fill="#536FFF"/>
<circle cx="75.5998" cy="90.0005" r="5.99999" fill="#536FFF"/>
<circle cx="104.4" cy="90.0005" r="5.99999" fill="#536FFF"/>
<circle cx="133.2" cy="90.0005" r="5.99999" fill="#536FFF"/>
<circle cx="162" cy="90.0005" r="5.99999" fill="#536FFF"/>
<circle cx="190.8" cy="90.0005" r="5.99999" fill="#536FFF"/>
<circle cx="219.6" cy="90.0005" r="5.99999" fill="#536FFF"/>
<circle cx="18" cy="125.999" r="5.99999" fill="#536FFF"/>
<circle cx="46.7998" cy="125.999" r="5.99999" fill="#536FFF"/>
<circle cx="75.5998" cy="125.999" r="5.99999" fill="#536FFF"/>
<circle cx="104.4" cy="125.999" r="5.99999" fill="#536FFF"/>
<circle cx="133.2" cy="125.999" r="5.99999" fill="#536FFF"/>
<circle cx="162" cy="125.999" r="5.99999" fill="#536FFF"/>
<circle cx="190.8" cy="125.999" r="5.99999" fill="#536FFF"/>
<circle cx="219.6" cy="125.999" r="5.99999" fill="#536FFF"/>
<circle cx="18" cy="161.999" r="5.99999" fill="#536FFF"/>
<circle cx="46.8" cy="161.999" r="5.99999" fill="#536FFF"/>
<circle cx="75.5998" cy="161.999" r="5.99999" fill="#536FFF"/>
<circle cx="104.4" cy="161.999" r="5.99999" fill="#536FFF"/>
<circle cx="133.2" cy="161.999" r="5.99999" fill="#536FFF"/>
<circle cx="162" cy="161.999" r="5.99999" fill="#536FFF"/>
<circle cx="190.8" cy="161.999" r="5.99999" fill="#536FFF"/>
<circle cx="219.6" cy="161.999" r="5.99999" fill="#536FFF"/>
<circle cx="18" cy="198" r="5.99999" fill="#536FFF"/>
<circle cx="46.8" cy="198" r="5.99999" fill="#536FFF"/>
<circle cx="75.5998" cy="198" r="5.99999" fill="#536FFF"/>
<circle cx="104.4" cy="198" r="5.99999" fill="#536FFF"/>
<circle cx="133.2" cy="198" r="5.99999" fill="#536FFF"/>
<circle cx="162" cy="198" r="5.99999" fill="#536FFF"/>
<circle cx="190.8" cy="198" r="5.99999" fill="#536FFF"/>
<circle cx="219.6" cy="198" r="5.99999" fill="#536FFF"/>
</g>
</svg>
