<svg width="160" height="160" viewBox="0 0 160 160" fill="none" xmlns="http://www.w3.org/2000/svg">
<path d="M148.467 14H11.5333C8.74068 14.0031 6.06331 15.1139 4.0886 17.0886C2.1139 19.0633 1.00314 21.7407 1 24.5333V114.067C1.00314 116.859 2.1139 119.537 4.0886 121.511C6.06331 123.486 8.74068 124.597 11.5333 124.6H60.5982L59.1618 140.4H52.7502C51.802 140.4 51.0333 141.169 51.0333 142.117V143.95C51.0333 144.898 51.802 145.667 52.7502 145.667H107.25C108.198 145.667 108.967 144.898 108.967 143.95V142.117C108.967 141.169 108.198 140.4 107.25 140.4H100.838L99.4017 124.6H148.467C151.259 124.597 153.937 123.486 155.911 121.511C157.886 119.537 158.997 116.859 159 114.067V24.5333C158.997 21.7407 157.886 19.0633 155.911 17.0886C153.937 15.1139 151.259 14.0031 148.467 14ZM11.5333 19.2667H148.467C149.863 19.2683 151.202 19.8237 152.189 20.8111C153.176 21.7984 153.732 23.137 153.733 24.5333V98.2666H6.26667V24.5333C6.26832 23.137 6.82373 21.7984 7.81106 20.8111C8.7984 19.8237 10.137 19.2683 11.5333 19.2667ZM95.5498 140.4H64.4502L65.8866 124.6H94.1133L95.5498 140.4ZM148.467 119.333H11.5333C10.137 119.332 8.7984 118.776 7.81106 117.789C6.82373 116.802 6.26832 115.463 6.26667 114.067V103.533H153.733V114.067C153.732 115.463 153.176 116.802 152.189 117.789C151.202 118.776 149.863 119.332 148.467 119.333Z" fill="white"/>
<path d="M77.3667 109.658C77.3667 109.184 77.751 108.8 78.2251 108.8H81.7749C82.249 108.8 82.6334 109.184 82.6334 109.658V113.208C82.6334 113.682 82.249 114.067 81.7749 114.067H78.2251C77.751 114.067 77.3667 113.682 77.3667 113.208V109.658Z" fill="white"/>
<path d="M65.6969 72.2762C65.3616 71.941 65.3616 71.3974 65.6969 71.0622L90.5475 46.2114C90.8828 45.8762 91.4263 45.8762 91.7615 46.2114L94.271 48.7209C94.6063 49.0562 94.6063 49.5997 94.271 49.935L69.4204 74.7857C69.0851 75.121 68.5416 75.121 68.2064 74.7857L65.6969 72.2762Z" fill="#6780FF"/>
<path d="M78.7286 74.1397C78.3934 73.8045 78.3934 73.2609 78.7286 72.9257L92.4088 59.2456C92.744 58.9104 93.2875 58.9104 93.6228 59.2456L96.1323 61.7551C96.4675 62.0904 96.4675 62.6339 96.1323 62.9691L82.4521 76.6492C82.1169 76.9845 81.5734 76.9845 81.2381 76.6492L78.7286 74.1397Z" fill="#6780FF"/>
<path d="M63.836 59.243C63.5008 58.9078 63.5008 58.3642 63.836 58.029L77.5161 44.3489C77.8513 44.0136 78.3948 44.0136 78.7301 44.3489L81.2396 46.8584C81.5748 47.1936 81.5748 47.7372 81.2396 48.0724L67.5595 61.7525C67.2243 62.0878 66.6808 62.0878 66.3455 61.7525L63.836 59.243Z" fill="#6780FF"/>
</svg>
