<svg width="34" height="34" viewBox="0 0 34 34" fill="none" xmlns="http://www.w3.org/2000/svg">
<g clip-path="url(#clip0)">
<path d="M7.53512 20.5467L6.35162 24.9648L2.02599 25.0563C0.733258 22.6586 0 19.9153 0 17C0 14.181 0.685578 11.5226 1.90081 9.18188H1.90174L5.75277 9.88792L7.43976 13.7158C7.08667 14.7452 6.89423 15.8502 6.89423 17C6.89436 18.2479 7.12041 19.4436 7.53512 20.5467Z" fill="#FBBB00"/>
<path d="M33.7033 13.8242C33.8985 14.8526 34.0003 15.9146 34.0003 17C34.0003 18.2171 33.8723 19.4043 33.6285 20.5495C32.801 24.4464 30.6386 27.8492 27.6431 30.2572L27.6422 30.2563L22.7916 30.0088L22.1051 25.7233C24.0927 24.5576 25.6461 22.7333 26.4644 20.5495H17.374V13.8242H26.597H33.7033Z" fill="#518EF8"/>
<path d="M27.6422 30.2562L27.6431 30.2572C24.7298 32.5988 21.029 33.9999 17.0004 33.9999C10.5264 33.9999 4.89771 30.3814 2.02637 25.0563L7.5355 20.5466C8.97113 24.3781 12.6672 27.1056 17.0004 27.1056C18.8629 27.1056 20.6078 26.6022 22.105 25.7232L27.6422 30.2562Z" fill="#28B446"/>
<path d="M27.8506 3.91372L22.3434 8.42244C20.7938 7.45384 18.962 6.8943 16.9996 6.8943C12.5684 6.8943 8.80312 9.74691 7.4394 13.7158L1.90132 9.18186H1.90039C4.7297 3.72692 10.4293 0 16.9996 0C21.1244 0 24.9064 1.4693 27.8506 3.91372Z" fill="#F14336"/>
</g>
<defs>
<clipPath id="clip0">
<rect width="34" height="34" fill="white"/>
</clipPath>
</defs>
</svg>
