<svg width="371" height="306" viewBox="0 0 371 306" fill="none" xmlns="http://www.w3.org/2000/svg">
<path d="M125.2 89.6V54H11.4V194H58.6V149.2H117V113.6H58.6V89.6H125.2ZM144.111 194H191.311V54H144.111V194ZM360.633 194L309.033 121.6L357.633 54H306.833L283.633 89.2L259.833 54H206.833L255.633 123.4L205.033 194H258.833L282.433 156.6L306.633 194H360.633Z" fill="#4460F1"/>
<path d="M13.928 268.3V226.18H20.168V239.44H34.988V244.9H20.168V269.08C20.168 272.72 21.988 274.54 25.628 274.54H35.768V277.66L32.648 280H25.628C17.828 280 13.928 276.1 13.928 268.3ZM40.8849 280V222.28H47.1249V239.44H62.7249C70.5249 239.44 74.4249 243.34 74.4249 251.14V280H68.1849V250.36C68.1849 246.72 66.3649 244.9 62.7249 244.9H47.1249V280H40.8849ZM92.282 280C84.43 280 80.504 276.074 80.504 268.222C80.504 260.37 84.43 256.444 92.282 256.444H106.556V250.36C106.556 246.72 104.736 244.9 101.096 244.9H84.404V241.78L87.524 239.44H101.096C108.896 239.44 112.796 243.34 112.796 251.14V280H92.282ZM86.744 269.08C86.744 272.72 88.564 274.54 92.204 274.54H106.556V261.904H92.204C88.564 261.904 86.744 263.724 86.744 267.364V269.08ZM120.751 268.3V226.18H126.991V239.44H141.811V244.9H126.991V269.08C126.991 272.72 128.811 274.54 132.451 274.54H142.591V277.66L139.471 280H132.451C124.651 280 120.751 276.1 120.751 268.3ZM161.923 268.3V251.14C161.923 243.34 165.823 239.44 173.623 239.44H189.223V222.28H195.463V280H173.623C165.823 280 161.923 276.1 161.923 268.3ZM168.163 269.08C168.163 272.72 169.983 274.54 173.623 274.54H189.223V244.9H173.623C169.983 244.9 168.163 246.72 168.163 250.36V269.08ZM203.421 268.3V251.14C203.421 243.34 207.321 239.44 215.121 239.44H225.261C233.061 239.44 236.961 243.34 236.961 251.14V262.372H209.661V269.08C209.661 272.72 211.481 274.54 215.121 274.54H235.401V277.66L232.281 280H215.121C207.321 280 203.421 276.1 203.421 268.3ZM209.661 256.912H230.721V250.36C230.721 246.72 228.901 244.9 225.261 244.9H215.121C211.481 244.9 209.661 246.72 209.661 250.36V256.912ZM240.254 240.532L240.956 239.44H246.338L258.194 274.54H259.754L271.61 239.44H276.992L277.694 240.532L264.044 280H253.904L240.254 240.532ZM281.402 232.108V224.932H287.954V232.108H281.402ZM281.558 280V239.44H287.798V280H281.558ZM295.772 268.3V251.14C295.772 243.34 299.672 239.44 307.472 239.44H322.76L325.88 241.78V244.9H307.472C303.832 244.9 302.012 246.72 302.012 250.36V269.08C302.012 272.72 303.832 274.54 307.472 274.54H325.88V277.66L322.76 280H307.472C299.672 280 295.772 276.1 295.772 268.3ZM331.177 268.3V251.14C331.177 243.34 335.077 239.44 342.877 239.44H353.017C360.817 239.44 364.717 243.34 364.717 251.14V262.372H337.417V269.08C337.417 272.72 339.237 274.54 342.877 274.54H363.157V277.66L360.037 280H342.877C335.077 280 331.177 276.1 331.177 268.3ZM337.417 256.912H358.477V250.36C358.477 246.72 356.657 244.9 353.017 244.9H342.877C339.237 244.9 337.417 246.72 337.417 250.36V256.912Z" fill="#4460F1"/>
</svg>
