<svg width="141" height="142" viewBox="0 0 141 142" fill="none" xmlns="http://www.w3.org/2000/svg">
<path d="M7.82111 69.4749C7.65587 90.137 17.1568 114.959 36.6545 125.221C47.56 130.962 60.2555 131.434 69.7014 131.794C79.643 132.155 87.9322 131.101 93.743 130.019C105.199 131.295 116.628 132.543 128.084 133.819C125.055 130.879 118.446 123.557 119.079 114.488C119.354 110.688 120.841 107.61 123.292 102.479C126.101 96.6269 129.103 92.1616 131.361 89.1663C131.885 84.3128 132.243 77.5179 131.554 69.4749C130.563 57.9097 129.158 41.796 118.693 28.428C102.638 7.93232 75.6223 7.15576 69.6738 7.15576C63.45 7.15576 45.2192 7.46084 29.1914 20.9397C9.2256 37.8022 7.87618 62.4026 7.82111 69.4749Z" fill="white"/>
<path d="M69.6463 3.43896C69.6739 3.4667 69.7565 3.4667 69.8667 3.4667C106.218 3.49443 135.795 33.2812 135.795 69.9183C135.795 84.8671 130.728 99.3722 121.447 111.076L131.031 133.513C131.83 135.371 130.948 137.507 129.158 138.256C128.525 138.533 127.781 138.616 127.12 138.505L91.9254 132.293C84.8754 134.872 77.4674 136.176 70.0043 136.12C33.6253 136.12 4.04831 106.334 4.04831 69.6964C3.99323 33.1702 33.3774 3.49443 69.6463 3.43896ZM70.0043 131.849C77.3022 131.849 84.4899 130.518 91.3471 127.939C91.9805 127.661 92.669 127.633 93.3575 127.744C104.125 129.603 114.893 131.461 125.661 133.319C122.521 126.857 119.382 120.395 116.242 113.933C116.242 113.017 115.719 111.242 116.848 109.939C121.31 104.725 124.862 98.7897 127.341 92.3831C130.122 85.1999 131.582 77.5452 131.582 69.8351C131.582 35.5276 103.877 7.65459 69.8391 7.65459C35.8835 7.57139 8.3444 35.2226 8.28932 69.419C8.28932 69.5023 8.28932 69.5577 8.28932 69.6409C8.26178 103.976 35.9936 131.849 70.0043 131.849Z" fill="black"/>
<path d="M85.7843 101.647C80.2765 104.559 74.6861 105.668 67.9665 105.668C51.5532 105.668 37.646 93.5759 37.646 74.2173C37.646 53.472 51.9663 35.5278 74.1628 35.5278C91.5675 35.5278 103.272 47.8142 103.272 64.6489C103.272 79.7642 94.8722 88.6392 85.4538 88.6392C81.4607 88.6392 77.7429 85.9212 78.0458 79.7642H77.6327C74.1353 85.6993 69.5362 88.6392 63.5327 88.6392C57.722 88.6392 52.7374 83.8966 52.7374 75.9368C52.7374 63.4286 62.5413 52.0575 76.4486 52.0575C80.7447 52.0575 84.545 52.9728 87.1613 54.1653L83.7464 72.4145C82.2593 80.0692 83.4435 83.5915 86.7482 83.7024C91.8429 83.8134 97.5435 76.963 97.5435 65.2591C97.5435 50.6431 88.8411 40.1595 73.3366 40.1595C57.0335 40.1595 43.319 53.1669 43.319 73.6071C43.319 90.4419 54.2245 100.815 69.0405 100.815C74.7411 100.815 80.0562 99.5942 84.1595 97.2923L85.7843 101.647ZM80.2765 58.1036C79.2851 57.7985 77.5777 57.4102 75.2644 57.4102C66.4519 57.4102 59.3468 65.786 59.3468 75.5485C59.3468 79.986 61.5499 83.2032 65.9562 83.2032C71.7669 83.2032 77.0544 75.7427 78.156 69.5024L80.2765 58.1036Z" fill="#4460F1"/>
</svg>
