<svg width="269" height="253" viewBox="0 0 269 253" fill="none" xmlns="http://www.w3.org/2000/svg">
<g clip-path="url(#clip0)">
<path d="M200.505 69.8161C218.99 92.351 230.445 128.082 217.922 156.754C210.919 172.792 197.264 184.643 187.113 193.471C176.413 202.742 166.291 208.986 158.892 212.986C147.323 224.614 135.76 236.186 124.192 247.814C124.945 241.883 125.786 227.944 117.051 218.554C113.38 214.629 109.005 212.577 101.743 209.132C93.4463 205.216 86.1639 202.994 81.0076 201.722C76.1285 196.861 69.713 189.721 63.352 180.277C54.2069 166.696 41.4908 147.753 41.2498 123.735C40.8922 86.9023 70.1503 61.9318 76.7439 56.6215C83.6428 51.0652 104.121 35.1248 133.826 35.6132C170.894 36.3003 194.18 62.1015 200.505 69.8161Z" fill="white"/>
<path d="M74.1488 52.0921C74.1429 52.1471 74.0513 52.2209 73.9292 52.3193C33.6559 84.8055 27.2492 143.909 59.6975 184.125C72.9372 200.534 91.4011 211.932 112.055 216.493L121.303 249.679C122.063 252.431 124.932 253.989 127.579 253.213C128.527 252.951 129.425 252.379 130.059 251.667L163.573 213.425C173.673 209.961 183.039 204.778 191.263 198.054C231.592 165.573 237.998 106.47 205.55 66.2539C173.261 26.1105 114.404 19.771 74.1488 52.0921ZM187.481 193.366C179.391 199.881 170.244 204.837 160.357 208.129C159.41 208.39 158.622 208.974 157.957 209.71C147.666 221.364 137.375 233.017 127.084 244.671C124.841 234.775 122.598 224.878 120.355 214.982C119.544 213.977 118.552 211.562 116.146 211.139C106.583 209.399 97.3879 206.056 88.9662 201.236C79.5209 195.834 71.1233 188.735 64.2947 180.272C33.9097 142.613 39.9353 87.2821 77.6688 56.8917C115.237 26.4836 170.255 32.2482 200.603 69.7359C200.677 69.8273 200.726 69.8882 200.8 69.9795C231.24 107.644 225.184 163 187.481 193.366Z" fill="black"/>
<path d="M186.868 108.607L186.81 108.549C186.794 108.534 186.773 108.508 186.729 108.454L186.724 108.446C186.689 108.403 186.634 108.335 186.575 108.276L186.222 108.63L186.575 108.276L186.496 108.197L186.474 108.175L186.449 108.156L169.978 95.4021V82.313C169.978 79.1834 167.442 76.6122 164.263 76.6122H145.651L138.338 70.9316C138.338 70.9313 138.337 70.931 138.337 70.9307C136.313 69.3428 133.432 69.3428 131.408 70.9306C131.408 70.9309 131.408 70.9312 131.407 70.9316L124.016 76.6513H105.404C102.269 76.6513 99.6888 79.1785 99.6888 82.3521V95.4803L83.2172 108.234L83.1925 108.253L83.1703 108.276L83.0919 108.354L83.0918 108.354L83.0863 108.359C83.0142 108.431 82.9176 108.528 82.8201 108.666C82.7004 108.797 82.6365 108.931 82.5892 109.066C82.5404 109.171 82.4977 109.299 82.4668 109.392L82.4609 109.41C82.459 109.415 82.457 109.421 82.4548 109.428C82.4257 109.514 82.378 109.656 82.3621 109.816C82.36 109.821 82.3578 109.826 82.3556 109.832C82.3403 109.873 82.3175 109.945 82.3175 110.037V168.771C82.3175 169.952 82.6915 171.09 83.3933 172.061C83.3938 172.062 83.3944 172.063 83.395 172.065C83.4256 172.126 83.4777 172.2 83.5628 172.261C84.6372 173.638 86.2529 174.433 87.9936 174.433H181.516C183.227 174.433 184.86 173.664 185.938 172.321H185.964L186.091 172.149L186.173 172.068L186.173 172.038C186.864 171.072 187.231 169.943 187.231 168.771V110.154C187.237 110.144 187.242 110.135 187.247 110.125C187.314 109.991 187.31 109.862 187.31 109.844L187.31 109.842C187.31 109.641 187.247 109.455 187.212 109.35L187.206 109.331C187.204 109.325 187.202 109.319 187.2 109.312C187.197 109.303 187.194 109.293 187.191 109.281C187.189 109.274 187.187 109.265 187.184 109.254C187.179 109.235 187.173 109.212 187.166 109.189C187.142 109.11 187.108 109.023 187.047 108.925C187.02 108.876 186.99 108.826 186.968 108.79L186.964 108.782C186.931 108.728 186.913 108.697 186.904 108.679L186.868 108.607ZM134.141 74.4173L134.145 74.4139C134.545 74.0953 135.154 74.0825 135.609 74.4214C135.61 74.422 135.611 74.4227 135.612 74.4234L138.446 76.6122H131.327L134.141 74.4173L134.141 74.4173ZM179.701 169.913H89.9656L134.1 135.733L134.106 135.728C134.505 135.41 135.114 135.397 135.57 135.735C135.571 135.736 135.572 135.737 135.573 135.738L179.701 169.913ZM117.203 131.425L117.2 131.423L88.888 109.49L99.7672 101.048V113.361C99.7672 114.577 100.777 115.582 101.993 115.582C103.209 115.582 104.218 114.577 104.218 113.361V82.313C104.218 81.6519 104.777 81.0924 105.443 81.0924H164.302C164.968 81.0924 165.527 81.6519 165.527 82.313V113.4C165.527 114.616 166.537 115.621 167.752 115.621C168.968 115.621 169.978 114.616 169.978 113.4V101.087L180.857 109.529L152.469 131.5C152.468 131.5 152.468 131.5 152.467 131.501C151.815 132.002 151.51 132.765 151.61 133.562C151.713 134.382 152.275 135.031 152.969 135.328L152.969 135.328L152.98 135.333C153.716 135.626 154.576 135.54 155.203 135.024L182.821 113.637L182.858 166.695L138.338 132.207C138.337 132.206 138.337 132.206 138.337 132.206C136.313 130.618 133.432 130.618 131.408 132.206C131.408 132.206 131.408 132.206 131.407 132.207L86.8859 166.695V113.598L114.467 134.948C114.467 134.949 114.468 134.949 114.469 134.95C115.441 135.714 116.849 135.5 117.599 134.553C118.368 133.581 118.153 132.174 117.203 131.425Z" fill="#4460F1" stroke="#4460F1"/>
<path d="M156.136 111.68V104.759C156.136 93.0238 146.617 83.5337 134.853 83.5337C123.089 83.5337 113.57 93.0238 113.57 104.759C113.57 116.493 123.089 125.983 134.853 125.983C136.069 125.983 137.078 124.979 137.078 123.763C137.078 122.547 136.069 121.542 134.853 121.542C125.56 121.542 118.021 114.022 118.021 104.759C118.021 95.4948 125.56 87.9748 134.853 87.9748C144.146 87.9748 151.685 95.4948 151.685 104.759V111.68C151.685 113.315 150.345 114.621 148.734 114.621C147.091 114.621 145.783 113.283 145.783 111.68V104.759C145.783 103.543 144.774 102.538 143.558 102.538C142.342 102.538 141.333 103.543 141.333 104.759C141.333 108.313 138.46 111.18 134.892 111.18C131.324 111.18 128.451 108.313 128.451 104.759C128.451 101.204 131.324 98.3372 134.892 98.3372C136.108 98.3372 137.117 97.3326 137.117 96.1167C137.117 94.9008 136.108 93.8961 134.892 93.8961C130.006 93.8961 125.728 97.0914 124.412 101.769C123.097 106.44 125.027 111.441 129.18 113.983C133.072 116.366 138.015 116.082 141.565 113.329C142.368 116.773 145.545 119.254 149.19 119.062C153.072 118.892 156.136 115.614 156.136 111.68Z" fill="#4460F1" stroke="#4460F1"/>
</g>
<defs>
<clipPath id="clip0">
<rect width="269" height="253" fill="white"/>
</clipPath>
</defs>
</svg>
