<svg width="187" height="177" viewBox="0 0 187 177" fill="none" xmlns="http://www.w3.org/2000/svg">
<g filter="url(#filter0_d)">
<path d="M154.207 87.1324C154.37 107.513 144.966 131.998 125.666 142.12C114.871 147.783 102.305 148.248 92.9548 148.604C83.1141 148.959 74.909 147.92 69.1572 146.853C57.8173 148.111 46.5046 149.342 35.1647 150.601C38.1632 147.701 44.7055 140.479 44.0785 131.533C43.8059 127.785 42.3339 124.748 39.9078 119.687C37.1274 113.915 34.1561 109.51 31.9208 106.556C31.4029 101.768 31.0485 95.0659 31.73 87.1324C32.7113 75.7245 34.1016 59.8301 44.4602 46.644C60.3524 26.4271 87.094 25.6611 92.982 25.6611C99.1427 25.6611 117.188 25.9621 133.053 39.2576C152.817 55.8633 154.152 80.129 154.207 87.1324Z" fill="white"/>
</g>
<path d="M93.2001 21.8584C93.1729 21.8858 93.0911 21.8858 92.982 21.8858C56.9996 21.9131 27.7229 51.2946 27.7229 87.4332C27.7229 102.179 32.7386 116.486 41.9251 128.031L32.4388 150.163C31.6483 151.996 32.5206 154.102 34.2924 154.841C34.9194 155.115 35.6554 155.197 36.3096 155.087L71.1472 148.959C78.1256 151.503 85.4584 152.789 92.8458 152.734C128.855 152.734 158.132 123.353 158.132 87.2144C158.187 51.1851 129.101 21.9131 93.2001 21.8584ZM92.8458 148.521C85.622 148.521 78.5073 147.208 71.7197 144.664C71.0927 144.391 70.4112 144.363 69.7297 144.473C59.0713 146.306 48.4128 148.138 37.7544 149.971C40.862 143.597 43.9695 137.223 47.0771 130.849C47.0771 129.946 47.595 128.195 46.4774 126.909C42.0614 121.766 38.5449 115.912 36.0916 109.592C33.3383 102.507 31.8936 94.9564 31.8936 87.3512C31.8936 53.5105 59.3166 26.0167 93.0093 26.0167C126.62 25.9346 153.88 53.2096 153.934 86.9408C153.934 87.0229 153.934 87.0776 153.934 87.1597C153.961 121.028 126.511 148.521 92.8458 148.521Z" fill="black"/>
<path d="M101.319 119.183L101.32 119.183C103.31 119.904 105.356 120.265 107.43 120.265C108.283 120.265 109.169 120.209 109.976 120.07C112.714 119.681 115.394 118.599 117.686 116.991L117.687 116.991C120.009 115.354 121.915 113.191 123.242 110.722L123.242 110.722C124.652 108.086 125.371 105.228 125.371 102.178C125.371 101.132 124.637 100.208 123.619 99.9909L109.199 96.8997L109.198 96.8994C108.458 96.7446 107.691 96.9923 107.171 97.5148L102.01 102.693C92.2638 97.7322 84.3277 89.7413 79.3842 79.9851L84.5426 74.8082C85.0987 74.2794 85.3104 73.5069 85.158 72.7729L85.1577 72.7717L82.0775 58.3001C81.8619 57.2803 80.9409 56.5425 79.8975 56.5425C76.8852 56.5425 74.0094 57.2638 71.383 58.6789L71.3825 58.6791C68.9223 60.0107 66.7667 61.9245 65.1361 64.2544L65.1357 64.2549C63.5322 66.5578 62.4824 69.2478 62.0679 71.993L62.0679 71.993L62.0676 71.9954C61.653 74.9358 61.9572 77.8767 62.9795 80.7052C66.1269 89.467 71.299 97.5959 77.894 104.215C84.4894 110.834 92.5894 115.997 101.319 119.183ZM67.157 79.1401L67.1569 79.1397C65.6311 74.9488 66.2193 70.4383 68.7896 66.757C71.0214 63.5686 74.3837 61.5448 78.1463 61.0621L80.5518 72.4694L75.1408 77.8998L75.1407 77.8997L75.1367 77.904C74.4963 78.5773 74.3103 79.562 74.7093 80.4245L74.7098 80.4255C80.2409 92.2417 89.7695 101.805 101.544 107.356L101.545 107.356C102.4 107.754 103.386 107.602 104.063 106.923L109.473 101.493L120.866 103.934C120.387 107.737 118.395 111.086 115.192 113.326L115.19 113.327C111.55 115.905 107.03 116.496 102.854 114.965L102.854 114.965C86.2135 108.89 73.2107 95.8406 67.157 79.1401Z" fill="#4460F1" stroke="#4460F1" stroke-width="0.5"/>
<path d="M121 88.3904C121 89.6219 121.983 90.6101 123.213 90.6101C124.413 90.6101 125.425 89.6241 125.425 88.3904C125.425 79.8983 122.101 71.8741 116.112 65.8636C110.122 59.825 102.153 56.5156 93.6635 56.5156C92.4342 56.5156 91.4508 57.5038 91.4508 58.7353C91.4508 59.9668 92.4342 60.955 93.6635 60.955C108.735 60.955 121 73.2624 121 88.3904Z" fill="#4460F1" stroke="#4460F1" stroke-width="0.5"/>
<path d="M113.122 88.3904C113.122 89.6219 114.105 90.6101 115.335 90.6101C116.535 90.6101 117.547 89.6242 117.547 88.3904C117.547 75.1765 106.832 64.4219 93.6635 64.4219C92.4342 64.4219 91.4508 65.4101 91.4508 66.6416C91.4508 67.8731 92.4342 68.8613 93.6635 68.8613C104.401 68.8613 113.122 77.6393 113.122 88.3904Z" fill="#4460F1" stroke="#4460F1" stroke-width="0.5"/>
<path d="M105.244 88.3905C105.244 89.622 106.228 90.6102 107.457 90.6102C108.657 90.6102 109.669 89.6243 109.669 88.3905C109.669 79.5264 102.498 72.3281 93.6635 72.3281C92.4342 72.3281 91.4508 73.3163 91.4508 74.5478C91.4508 75.7793 92.4342 76.7675 93.6635 76.7675C100.066 76.7675 105.244 81.989 105.244 88.3905Z" fill="#4460F1" stroke="#4460F1" stroke-width="0.5"/>
<defs>
<filter id="filter0_d" x="27.3535" y="25.6611" width="130.855" height="132.94" filterUnits="userSpaceOnUse" color-interpolation-filters="sRGB">
<feFlood flood-opacity="0" result="BackgroundImageFix"/>
<feColorMatrix in="SourceAlpha" type="matrix" values="0 0 0 0 0 0 0 0 0 0 0 0 0 0 0 0 0 0 127 0"/>
<feOffset dy="4"/>
<feGaussianBlur stdDeviation="2"/>
<feColorMatrix type="matrix" values="0 0 0 0 0 0 0 0 0 0 0 0 0 0 0 0 0 0 0.25 0"/>
<feBlend mode="normal" in2="BackgroundImageFix" result="effect1_dropShadow"/>
<feBlend mode="normal" in="SourceGraphic" in2="effect1_dropShadow" result="shape"/>
</filter>
</defs>
</svg>
