<svg width="160" height="160" viewBox="0 0 160 160" fill="none" xmlns="http://www.w3.org/2000/svg">
<path d="M22.532 17.5V142.5C22.5357 145.814 23.8557 148.991 26.2025 151.335C28.5492 153.678 31.731 154.996 35.0498 155H55.8041C56.7859 155 57.5819 154.204 57.5819 153.222V151.778C57.5819 150.796 56.7859 150 55.8041 150H35.0498C33.0586 149.998 31.1495 149.207 29.7415 147.801C28.3335 146.395 27.5414 144.488 27.5391 142.5V17.5C27.5414 15.5116 28.3335 13.6053 29.7415 12.1993C31.1495 10.7932 33.0586 10.0023 35.0498 10H55.8041C56.7859 10 57.5819 9.20406 57.5819 8.22222V6.77778C57.5819 5.79594 56.7859 5 55.8041 5H35.0498C31.731 5.00372 28.5492 6.32188 26.2025 8.66528C23.8557 11.0087 22.5357 14.1859 22.532 17.5Z" fill="#4460F1"/>
<path d="M50.0713 15H40.0571C38.0658 15.0023 36.1568 15.7932 34.7488 17.1993C33.3408 18.6053 32.5487 20.5116 32.5464 22.5V32.5C32.5487 34.4884 33.3408 36.3947 34.7488 37.8007C36.1568 39.2068 38.0658 39.9977 40.0571 40H50.0713C52.0626 39.9977 53.9716 39.2068 55.3796 37.8007C56.7876 36.3947 57.5797 34.4884 57.582 32.5V22.5C57.5797 20.5116 56.7876 18.6053 55.3796 17.1993C53.9716 15.7932 52.0626 15.0023 50.0713 15ZM52.5749 32.5C52.5741 33.1628 52.3101 33.7983 51.8408 34.2669C51.3714 34.7356 50.7351 34.9993 50.0713 35H40.0571C39.3933 34.9993 38.757 34.7356 38.2876 34.2669C37.8183 33.7983 37.5543 33.1628 37.5535 32.5V22.5C37.5543 21.8372 37.8183 21.2017 38.2876 20.7331C38.757 20.2644 39.3933 20.0007 40.0571 20H50.0713C50.7351 20.0007 51.3714 20.2644 51.8408 20.7331C52.3101 21.2017 52.5741 21.8372 52.5749 22.5V32.5Z" fill="#4460F1"/>
<path d="M125.178 5H75.1069C71.7881 5.00372 68.6063 6.32188 66.2596 8.66528C63.9129 11.0087 62.5928 14.1859 62.5891 17.5V142.5C62.5928 145.814 63.9129 148.991 66.2596 151.335C68.6063 153.678 71.7881 154.996 75.1069 155H125.178C128.497 154.996 131.679 153.678 134.026 151.335C136.372 148.991 137.692 145.814 137.696 142.5V17.5C137.692 14.1859 136.372 11.0087 134.026 8.66528C131.679 6.32188 128.497 5.00372 125.178 5ZM132.689 142.5C132.687 144.488 131.895 146.395 130.486 147.801C129.078 149.207 127.169 149.998 125.178 150H75.1069C73.1157 149.998 71.2067 149.207 69.7986 147.801C68.3906 146.395 67.5986 144.488 67.5962 142.5V17.5C67.5986 15.5116 68.3906 13.6053 69.7986 12.1993C71.2067 10.7932 73.1157 10.0023 75.1069 10H125.178C127.169 10.0023 129.078 10.7932 130.486 12.1993C131.895 13.6053 132.687 15.5116 132.689 17.5V142.5Z" fill="#2B2F3F"/>
<path d="M97.6389 138.389C97.6389 137.898 98.0369 137.5 98.5278 137.5H101.757C102.248 137.5 102.646 137.898 102.646 138.389V141.611C102.646 142.102 102.248 142.5 101.757 142.5H98.5278C98.0369 142.5 97.6389 142.102 97.6389 141.611V138.389Z" fill="#2B2F3F"/>
<path d="M102.646 18.3889C102.646 17.898 103.044 17.5 103.535 17.5H106.764C107.255 17.5 107.653 17.898 107.653 18.3889V21.6111C107.653 22.102 107.255 22.5 106.764 22.5H103.535C103.044 22.5 102.646 22.102 102.646 21.6111V18.3889Z" fill="#2B2F3F"/>
<path d="M92.6318 18.3889C92.6318 17.898 93.0298 17.5 93.5207 17.5H96.7501C97.241 17.5 97.639 17.898 97.639 18.3889V21.6111C97.639 22.102 97.241 22.5 96.7501 22.5H93.5207C93.0298 22.5 92.6318 22.102 92.6318 21.6111V18.3889Z" fill="#2B2F3F"/>
<path d="M86.5921 91.2345C86.2447 90.8877 86.2447 90.3252 86.5921 89.9784L110.114 66.4895C110.462 66.1427 111.025 66.1427 111.372 66.4895L113.654 68.7684C114.002 69.1152 114.002 69.6777 113.654 70.0245L90.1322 93.5134C89.7848 93.8602 89.2216 93.8602 88.8742 93.5134L86.5921 91.2345Z" fill="#2B2F3F"/>
<path d="M98.981 92.9977C98.6337 92.6508 98.6337 92.0884 98.981 91.7415L111.883 78.8577C112.231 78.5108 112.794 78.5109 113.141 78.8577L115.423 81.1365C115.771 81.4834 115.771 82.0458 115.423 82.3927L102.521 95.2765C102.174 95.6234 101.61 95.6234 101.263 95.2765L98.981 92.9977Z" fill="#2B2F3F"/>
<path d="M84.8219 78.8564C84.4745 78.5095 84.4745 77.9471 84.8219 77.6002L97.724 64.7164C98.0714 64.3695 98.6346 64.3695 98.982 64.7164L101.264 66.9952C101.611 67.3421 101.611 67.9045 101.264 68.2514L88.3619 81.1352C88.0145 81.4821 87.4513 81.4821 87.1039 81.1352L84.8219 78.8564Z" fill="#2B2F3F"/>
</svg>
