<svg width="160" height="160" fill="none" xmlns="http://www.w3.org/2000/svg"><path d="M22.532 17.5v125a12.506 12.506 0 003.67 8.835A12.543 12.543 0 0035.05 155h20.754c.982 0 1.778-.796 1.778-1.778v-1.444c0-.982-.796-1.778-1.778-1.778H35.05a7.523 7.523 0 01-5.308-2.199 7.505 7.505 0 01-2.203-5.301v-125a7.503 7.503 0 012.202-5.3A7.525 7.525 0 0135.05 10h20.754c.982 0 1.778-.796 1.778-1.778V6.778c0-.982-.796-1.778-1.778-1.778H35.05a12.54 12.54 0 00-8.847 3.665 12.505 12.505 0 00-3.671 8.835z" fill="#6780FF"/><path d="M50.071 15H40.057a7.524 7.524 0 00-5.308 2.2 7.503 7.503 0 00-2.203 5.3v10a7.503 7.503 0 002.203 5.3 7.524 7.524 0 005.308 2.2h10.014a7.524 7.524 0 005.309-2.2 7.503 7.503 0 002.202-5.3v-10a7.503 7.503 0 00-2.202-5.3A7.524 7.524 0 0050.07 15zm2.504 17.5A2.501 2.501 0 0150.07 35H40.057a2.508 2.508 0 01-2.504-2.5v-10a2.501 2.501 0 012.504-2.5h10.014a2.508 2.508 0 012.504 2.5v10z" fill="#6780FF"/><path d="M125.178 5H75.107a12.54 12.54 0 00-8.847 3.665 12.505 12.505 0 00-3.67 8.835v125a12.507 12.507 0 003.67 8.835A12.543 12.543 0 0075.107 155h50.071a12.545 12.545 0 008.848-3.665 12.51 12.51 0 003.67-8.835v-125a12.509 12.509 0 00-3.67-8.835A12.543 12.543 0 00125.178 5zm7.511 137.5a7.5 7.5 0 01-2.203 5.301 7.523 7.523 0 01-5.308 2.199H75.107a7.524 7.524 0 01-5.308-2.199 7.505 7.505 0 01-2.203-5.301v-125a7.504 7.504 0 012.203-5.3 7.525 7.525 0 015.308-2.2h50.071c1.991.002 3.9.793 5.308 2.2a7.498 7.498 0 012.203 5.3v125z" fill="#fff"/><path d="M97.639 138.389c0-.491.398-.889.889-.889h3.229c.491 0 .889.398.889.889v3.222a.889.889 0 01-.889.889h-3.23a.889.889 0 01-.888-.889v-3.222zM102.646 18.389c0-.491.398-.889.889-.889h3.229c.491 0 .889.398.889.889v3.222c0 .491-.398.889-.889.889h-3.229a.889.889 0 01-.889-.889V18.39zM92.632 18.389c0-.491.398-.889.889-.889h3.23c.49 0 .888.398.888.889v3.222c0 .491-.398.889-.889.889h-3.23a.889.889 0 01-.888-.889V18.39zM86.592 91.234a.887.887 0 010-1.256l23.522-23.488a.89.89 0 011.258 0l2.282 2.278a.886.886 0 010 1.257L90.132 93.513a.89.89 0 01-1.258 0l-2.282-2.279zM98.981 92.998a.888.888 0 010-1.257l12.902-12.883a.89.89 0 011.258 0l2.282 2.278a.886.886 0 010 1.257l-12.902 12.883a.89.89 0 01-1.258 0l-2.282-2.278zM84.822 78.856a.887.887 0 010-1.256l12.902-12.884a.89.89 0 011.258 0l2.282 2.28a.888.888 0 010 1.255L88.362 81.135a.89.89 0 01-1.258 0l-2.282-2.279z" fill="#fff"/></svg>