<svg width="156" height="158" viewBox="0 0 156 158" fill="none" xmlns="http://www.w3.org/2000/svg">
<path d="M5.90332 12.2853V144.967C5.9056 146.922 6.68294 148.795 8.06482 150.177C9.44669 151.559 11.3203 152.336 13.2745 152.339H28.7268C29.6918 152.339 30.4741 151.556 30.4741 150.591V149.172C30.4741 148.207 29.6918 147.424 28.7268 147.424H13.2745C12.6231 147.424 11.9986 147.165 11.5379 146.704C11.0773 146.243 10.8182 145.619 10.8175 144.967V12.2853C10.8182 11.6339 11.0773 11.0093 11.5379 10.5487C11.9986 10.088 12.6231 9.82894 13.2745 9.82821H28.7268C29.6918 9.82821 30.4741 9.04594 30.4741 8.08096V6.66131C30.4741 5.69633 29.6918 4.91406 28.7268 4.91406H13.2745C11.3203 4.91634 9.44669 5.69368 8.06482 7.07556C6.68294 8.45744 5.9056 10.331 5.90332 12.2853Z" fill="#4460F1"/>
<path d="M20.6455 35.2726C20.6455 34.7901 21.0366 34.3989 21.5191 34.3989H24.686C25.1685 34.3989 25.5597 34.7901 25.5597 35.2726V38.4394C25.5597 38.9219 25.1685 39.3131 24.686 39.3131H21.5191C21.0366 39.3131 20.6455 38.9219 20.6455 38.4394V35.2726Z" fill="#4460F1"/>
<path d="M30.4741 22.1132C30.4741 20.6553 30.0418 19.2301 29.2319 18.0179C28.4219 16.8057 27.2707 15.861 25.9238 15.303C24.5768 14.7451 23.0947 14.5992 21.6649 14.8836C20.235 15.168 18.9216 15.87 17.8907 16.9009C16.8598 17.9318 16.1577 19.2452 15.8733 20.6751C15.5889 22.105 15.7349 23.5871 16.2928 24.934C16.8507 26.2809 17.7955 27.4322 19.0077 28.2421C20.2199 29.0521 21.645 29.4844 23.1029 29.4844C25.0572 29.4821 26.9308 28.7048 28.3126 27.3229C29.6945 25.941 30.4719 24.0674 30.4741 22.1132ZM23.1029 24.5702C22.617 24.5702 22.1419 24.4261 21.7378 24.1562C21.3338 23.8862 21.0188 23.5024 20.8329 23.0535C20.6469 22.6045 20.5982 22.1104 20.6931 21.6338C20.7879 21.1572 21.0219 20.7194 21.3655 20.3758C21.7091 20.0321 22.1469 19.7981 22.6236 19.7033C23.1002 19.6085 23.5942 19.6572 24.0432 19.8431C24.4922 20.0291 24.8759 20.344 25.1459 20.7481C25.4159 21.1522 25.56 21.6272 25.56 22.1132C25.5593 22.7646 25.3002 23.3891 24.8395 23.8498C24.3789 24.3104 23.7543 24.5695 23.1029 24.5702Z" fill="#4460F1"/>
<path d="M143.499 144.967C143.499 145.618 143.24 146.243 142.779 146.704C142.318 147.164 141.694 147.423 141.042 147.424H42.7594C42.108 147.423 41.4834 147.164 41.0228 146.704C40.5622 146.243 40.3031 145.618 40.3023 144.967V12.285C40.3031 11.6336 40.5622 11.0091 41.0228 10.5484C41.4834 10.0878 42.108 9.8287 42.7594 9.82797H141.042C141.694 9.8287 142.318 10.0878 142.779 10.5484C143.24 11.0091 143.499 11.6336 143.499 12.285V108.821C143.499 109.786 144.282 110.568 145.247 110.568H146.666C147.631 110.568 148.414 109.786 148.414 108.821V12.285C148.411 10.3308 147.634 8.45719 146.252 7.07531C144.87 5.69343 142.997 4.91609 141.042 4.91382H42.7594C40.8051 4.91609 38.9316 5.69343 37.5497 7.07531C36.1678 8.45719 35.3905 10.3308 35.3882 12.285V144.967C35.3905 146.921 36.1678 148.795 37.5497 150.177C38.9316 151.559 40.8051 152.336 42.7594 152.338H141.042C142.997 152.336 144.87 151.559 146.252 150.177C147.634 148.795 148.411 146.921 148.414 144.967V136.886C148.414 135.921 147.631 135.139 146.666 135.139H145.247C144.282 135.139 143.499 135.921 143.499 136.886V144.967Z" fill="#2B2F3F"/>
<path d="M91.9009 136.013C91.9009 135.53 92.292 135.139 92.7745 135.139H95.9414C96.4239 135.139 96.815 135.53 96.815 136.013V139.179C96.815 139.662 96.4239 140.053 95.9414 140.053H92.7745C92.292 140.053 91.9009 139.662 91.9009 139.179V136.013Z" fill="#2B2F3F"/>
<path d="M145.957 115.482H57.5019C57.1793 115.482 56.8597 115.546 56.5616 115.669C56.2635 115.793 55.9926 115.974 55.7645 116.202L50.8503 121.116C50.6221 121.344 50.4412 121.615 50.3177 121.913C50.1942 122.211 50.1306 122.531 50.1306 122.854C50.1306 123.176 50.1942 123.496 50.3177 123.794C50.4412 124.092 50.6221 124.363 50.8503 124.591L55.7645 129.505C55.9926 129.733 56.2635 129.914 56.5616 130.038C56.8597 130.161 57.1793 130.225 57.5019 130.225H145.957C147.912 130.225 149.786 129.448 151.169 128.066C152.551 126.684 153.328 124.809 153.328 122.854C153.328 120.899 152.551 119.024 151.169 117.641C149.786 116.259 147.912 115.482 145.957 115.482ZM56.0624 122.854L58.5195 120.397H72.2444V125.311H58.5195L56.0624 122.854ZM145.957 125.311H77.1585V120.397H145.957C146.608 120.397 147.233 120.655 147.694 121.116C148.155 121.577 148.414 122.202 148.414 122.854C148.414 123.505 148.155 124.13 147.694 124.591C147.233 125.052 146.608 125.311 145.957 125.311Z" fill="#2B2F3F"/>
<path d="M78.6041 83.1407C78.2629 82.7995 78.2629 82.2464 78.6041 81.9052L101.688 58.8208C102.03 58.4796 102.583 58.4796 102.924 58.8208L105.163 61.0598C105.504 61.401 105.504 61.9541 105.163 62.2953L81.4608 85.9975L78.6041 83.1407Z" fill="#2B2F3F"/>
<path d="M90.7635 84.8787C90.4223 84.5376 90.4223 83.9844 90.7635 83.6432L103.425 70.9815C103.766 70.6404 104.32 70.6404 104.661 70.9815L106.9 73.2206C107.241 73.5617 107.241 74.1149 106.9 74.456L94.238 87.1178C93.8968 87.4589 93.3437 87.4589 93.0025 87.1178L90.7635 84.8787Z" fill="#2B2F3F"/>
<path d="M76.8673 70.9793C76.5261 70.6381 76.5261 70.085 76.8673 69.7438L89.529 57.0821C89.8701 56.7409 90.4233 56.7409 90.7645 57.0821L93.0035 59.3211C93.3447 59.6623 93.3447 60.2155 93.0035 60.5566L80.3418 73.2183C80.0006 73.5595 79.4475 73.5595 79.1063 73.2183L76.8673 70.9793Z" fill="#2B2F3F"/>
</svg>
