<svg width="31" height="31" viewBox="0 0 31 31" fill="none" xmlns="http://www.w3.org/2000/svg">
<g clip-path="url(#clip0)">
<path d="M15.5233 26.8052C9.22334 26.8052 4.09766 21.6849 4.09766 15.3914C4.09766 9.0978 9.22334 3.97754 15.5233 3.97754C21.8233 3.97754 26.949 9.0978 26.949 15.3914C26.949 21.6849 21.8233 26.8052 15.5233 26.8052ZM15.5233 5.75374C10.2036 5.75374 5.87567 10.0772 5.87567 15.3914C5.87567 20.7055 10.2036 25.029 15.5233 25.029C20.843 25.029 25.1709 20.7055 25.1709 15.3914C25.1709 10.0772 20.843 5.75374 15.5233 5.75374Z" fill="#4460F1"/>
<path d="M15.5234 21.4369C12.1864 21.4369 9.47168 18.7249 9.47168 15.3913C9.47168 12.0577 12.1864 9.3457 15.5234 9.3457C18.8604 9.3457 21.5752 12.0577 21.5752 15.3913C21.5752 18.7249 18.8604 21.4369 15.5234 21.4369ZM15.5234 11.1219C13.1671 11.1219 11.2497 13.0371 11.2497 15.3913C11.2497 17.7455 13.1671 19.6607 15.5234 19.6607C17.8798 19.6607 19.7972 17.7455 19.7972 15.3913C19.7972 13.0371 17.8797 11.1219 15.5234 11.1219Z" fill="#4460F1"/>
<path d="M15.5233 5.7537C15.0325 5.7537 14.6343 5.35614 14.6343 4.8656V1.18205C14.6343 0.6915 15.0325 0.293945 15.5233 0.293945C16.0141 0.293945 16.4123 0.6915 16.4123 1.18205V4.8656C16.4123 5.35614 16.0141 5.7537 15.5233 5.7537Z" fill="#4460F1"/>
<path d="M15.5233 30.4895C15.0325 30.4895 14.6343 30.092 14.6343 29.6014V25.9174C14.6343 25.4269 15.0325 25.0293 15.5233 25.0293C16.0141 25.0293 16.4123 25.4269 16.4123 25.9174V29.6014C16.4123 30.092 16.0141 30.4895 15.5233 30.4895Z" fill="#4460F1"/>
<path d="M4.98442 16.2801H1.29916C0.808381 16.2801 0.410156 15.8826 0.410156 15.392C0.410156 14.9015 0.808381 14.5039 1.29916 14.5039H4.98442C5.4752 14.5039 5.87342 14.9015 5.87342 15.392C5.87342 15.8826 5.4752 16.2801 4.98442 16.2801Z" fill="#4460F1"/>
<path d="M29.7475 16.2801H26.0599C25.5691 16.2801 25.1709 15.8826 25.1709 15.392C25.1709 14.9015 25.5691 14.5039 26.0599 14.5039H29.7475C30.2383 14.5039 30.6365 14.9015 30.6365 15.392C30.6365 15.8826 30.2383 16.2801 29.7475 16.2801Z" fill="#4460F1"/>
</g>
<defs>
<clipPath id="clip0">
<rect width="30.2264" height="30.1957" fill="white" transform="translate(0.410156 0.293945)"/>
</clipPath>
</defs>
</svg>
