<svg width="651" height="203" viewBox="0 0 651 203" fill="none" xmlns="http://www.w3.org/2000/svg">
<path d="M53.8176 72.709V46.609H29.5176V72.709H7.41758V3.90898H29.5176V29.009H53.8176V3.90898H75.9176V72.709H53.8176ZM116.618 18.709C126.285 18.709 133.652 20.9756 138.718 25.509C143.852 30.0423 146.418 36.9757 146.418 46.309V49.709H106.818C106.818 53.509 107.652 56.3757 109.318 58.309C111.052 60.2423 113.752 61.209 117.418 61.209C120.752 61.209 123.185 60.509 124.718 59.109C126.318 57.709 127.118 55.8423 127.118 53.509H146.418C146.418 59.909 143.985 64.909 139.118 68.509C134.252 72.109 127.152 73.909 117.818 73.909C108.018 73.909 100.418 71.6423 95.0184 67.109C89.6184 62.509 86.9184 55.5757 86.9184 46.309C86.9184 37.2423 89.5517 30.3756 94.8184 25.709C100.085 21.0423 107.352 18.709 116.618 18.709ZM117.418 31.409C111.152 31.409 107.652 34.3756 106.918 40.309H126.318C126.318 37.5757 125.518 35.409 123.918 33.809C122.385 32.209 120.218 31.409 117.418 31.409ZM188.118 18.609C189.651 18.609 191.018 18.809 192.218 19.209C193.418 19.5423 194.018 19.7423 194.018 19.809V36.509H187.618C183.484 36.509 180.484 37.5756 178.618 39.709C176.818 41.8423 175.918 45.009 175.918 49.209V72.709H156.018V19.909H172.318L173.618 27.909C174.818 24.8423 176.718 22.5423 179.318 21.009C181.918 19.409 184.851 18.609 188.118 18.609ZM229.314 18.709C238.98 18.709 246.347 20.9756 251.414 25.509C256.547 30.0423 259.114 36.9757 259.114 46.309V49.709H219.514C219.514 53.509 220.347 56.3757 222.014 58.309C223.747 60.2423 226.447 61.209 230.114 61.209C233.447 61.209 235.88 60.509 237.414 59.109C239.014 57.709 239.814 55.8423 239.814 53.509H259.114C259.114 59.909 256.68 64.909 251.814 68.509C246.947 72.109 239.847 73.909 230.514 73.909C220.714 73.909 213.114 71.6423 207.714 67.109C202.314 62.509 199.614 55.5757 199.614 46.309C199.614 37.2423 202.247 30.3756 207.514 25.709C212.78 21.0423 220.047 18.709 229.314 18.709ZM230.114 31.409C223.847 31.409 220.347 34.3756 219.614 40.309H239.014C239.014 37.5757 238.214 35.409 236.614 33.809C235.08 32.209 232.914 31.409 230.114 31.409ZM268.589 127.709C274.723 127.709 279.323 129.409 282.389 132.809C285.456 136.209 286.989 141.109 286.989 147.509V181.709H267.089V149.909C267.089 147.642 266.489 145.842 265.289 144.509C264.156 143.109 262.523 142.409 260.389 142.409C257.923 142.409 255.923 143.209 254.389 144.809C252.856 146.409 252.089 148.376 252.089 150.709V181.709H232.189V128.909H248.489L249.789 136.909C251.856 134.109 254.556 131.876 257.889 130.209C261.289 128.542 264.856 127.709 268.589 127.709ZM326.189 127.709C335.855 127.709 343.222 129.976 348.289 134.509C353.422 139.042 355.989 145.976 355.989 155.309V158.709H316.389C316.389 162.509 317.222 165.376 318.889 167.309C320.622 169.242 323.322 170.209 326.989 170.209C330.322 170.209 332.755 169.509 334.289 168.109C335.889 166.709 336.689 164.842 336.689 162.509H355.989C355.989 168.909 353.555 173.909 348.689 177.509C343.822 181.109 336.722 182.909 327.389 182.909C317.589 182.909 309.989 180.642 304.589 176.109C299.189 171.509 296.489 164.576 296.489 155.309C296.489 146.242 299.122 139.376 304.389 134.709C309.655 130.042 316.922 127.709 326.189 127.709ZM326.989 140.409C320.722 140.409 317.222 143.376 316.489 149.309H335.889C335.889 146.576 335.089 144.409 333.489 142.809C331.955 141.209 329.789 140.409 326.989 140.409ZM392.888 127.709C402.555 127.709 409.921 129.976 414.988 134.509C420.121 139.042 422.688 145.976 422.688 155.309V158.709H383.088C383.088 162.509 383.921 165.376 385.588 167.309C387.321 169.242 390.021 170.209 393.688 170.209C397.021 170.209 399.455 169.509 400.988 168.109C402.588 166.709 403.388 164.842 403.388 162.509H422.688C422.688 168.909 420.255 173.909 415.388 177.509C410.521 181.109 403.421 182.909 394.088 182.909C384.288 182.909 376.688 180.642 371.288 176.109C365.888 171.509 363.188 164.576 363.188 155.309C363.188 146.242 365.821 139.376 371.088 134.709C376.355 130.042 383.621 127.709 392.888 127.709ZM393.688 140.409C387.421 140.409 383.921 143.376 383.188 149.309H402.588C402.588 146.576 401.788 144.409 400.188 142.809C398.655 141.209 396.488 140.409 393.688 140.409ZM470.687 181.709L468.987 174.209C465.12 180.009 459.52 182.909 452.187 182.909C445.054 182.909 439.554 180.576 435.687 175.909C431.82 171.242 429.887 164.342 429.887 155.209C429.887 146.142 431.82 139.309 435.687 134.709C439.554 130.042 445.054 127.709 452.187 127.709C458.254 127.709 463.187 129.742 466.987 133.809V109.209H486.887V181.709H470.687ZM458.387 142.409C452.654 142.409 449.787 145.842 449.787 152.709V158.009C449.787 164.809 452.654 168.209 458.387 168.209C461.32 168.209 463.52 167.176 464.987 165.109C466.454 163.042 467.187 160.342 467.187 157.009V153.709C467.187 150.376 466.454 147.676 464.987 145.609C463.52 143.476 461.32 142.409 458.387 142.409Z" fill="#2B50ED"/>
<path d="M351.614 72.709L343.414 43.309H343.014L334.714 72.709H315.314L296.014 19.909H317.414L325.414 51.109H326.114L334.414 19.909H354.214L362.214 51.109H362.914L371.014 19.909H390.414L371.014 72.709H351.614ZM418.007 25.409C420.141 23.2757 422.641 21.6423 425.507 20.509C428.374 19.309 431.374 18.709 434.507 18.709C440.641 18.709 445.241 20.409 448.307 23.809C451.374 27.209 452.907 32.109 452.907 38.509V72.709H433.007V40.909C433.007 38.6423 432.407 36.8423 431.207 35.509C430.074 34.109 428.441 33.409 426.307 33.409C423.841 33.409 421.841 34.209 420.307 35.809C418.774 37.409 418.007 39.3756 418.007 41.709V72.709H398.107V0.208982H418.007V25.409ZM492.107 18.709C501.773 18.709 509.14 20.9756 514.207 25.509C519.34 30.0423 521.907 36.9757 521.907 46.309V49.709H482.307C482.307 53.509 483.14 56.3757 484.807 58.309C486.54 60.2423 489.24 61.209 492.907 61.209C496.24 61.209 498.673 60.509 500.207 59.109C501.807 57.709 502.607 55.8423 502.607 53.509H521.907C521.907 59.909 519.473 64.909 514.607 68.509C509.74 72.109 502.64 73.909 493.307 73.909C483.507 73.909 475.907 71.6423 470.507 67.109C465.107 62.509 462.407 55.5757 462.407 46.309C462.407 37.2423 465.04 30.3756 470.307 25.709C475.573 21.0423 482.84 18.709 492.107 18.709ZM492.907 31.409C486.64 31.409 483.14 34.3756 482.407 40.309H501.807C501.807 37.5757 501.007 35.409 499.407 33.809C497.873 32.209 495.707 31.409 492.907 31.409ZM567.906 18.709C574.039 18.709 578.639 20.409 581.706 23.809C584.773 27.209 586.306 32.109 586.306 38.509V72.709H566.406V40.909C566.406 38.6423 565.806 36.8423 564.606 35.509C563.473 34.109 561.839 33.409 559.706 33.409C557.239 33.409 555.239 34.209 553.706 35.809C552.173 37.409 551.406 39.3756 551.406 41.709V72.709H531.506V19.909H547.806L549.106 27.909C551.173 25.109 553.873 22.8756 557.206 21.209C560.606 19.5423 564.173 18.709 567.906 18.709ZM42.3176 180.109C39.5842 187.509 36.2176 193.109 32.2176 196.909C28.2842 200.776 22.7509 202.709 15.6176 202.709C11.2842 202.709 7.45091 202.109 4.11758 200.909V189.009H12.1176C17.1176 189.009 20.0842 186.576 21.0176 181.709L0.0175781 128.909H21.4176L31.5176 164.009H32.2176L41.5176 128.909H61.1176L42.3176 180.109ZM92.7902 127.709C102.057 127.709 109.324 130.076 114.59 134.809C119.924 139.476 122.59 146.309 122.59 155.309C122.59 164.309 119.924 171.176 114.59 175.909C109.324 180.576 102.057 182.909 92.7902 182.909C83.5236 182.909 76.2569 180.576 70.9902 175.909C65.7236 171.242 63.0902 164.376 63.0902 155.309C63.0902 146.242 65.7236 139.376 70.9902 134.709C76.2569 130.042 83.5236 127.709 92.7902 127.709ZM92.7902 141.209C86.2569 141.209 82.9902 144.976 82.9902 152.509V158.209C82.9902 165.676 86.2569 169.409 92.7902 169.409C99.3902 169.409 102.69 165.676 102.69 158.209V152.509C102.69 144.976 99.3902 141.209 92.7902 141.209ZM170.489 181.709L169.189 173.709C167.123 176.576 164.389 178.842 160.989 180.509C157.656 182.109 154.123 182.909 150.389 182.909C144.256 182.909 139.656 181.209 136.589 177.809C133.523 174.409 131.989 169.509 131.989 163.109V128.909H151.889V160.709C151.889 162.976 152.456 164.809 153.589 166.209C154.789 167.542 156.456 168.209 158.589 168.209C161.056 168.209 163.056 167.409 164.589 165.809C166.123 164.209 166.889 162.242 166.889 159.909V128.909H186.789V181.709H170.489ZM570.587 181.709L569.287 173.709C567.22 176.576 564.487 178.842 561.087 180.509C557.754 182.109 554.22 182.909 550.487 182.909C544.354 182.909 539.754 181.209 536.687 177.809C533.62 174.409 532.087 169.509 532.087 163.109V128.909H551.987V160.709C551.987 162.976 552.554 164.809 553.687 166.209C554.887 167.542 556.554 168.209 558.687 168.209C561.154 168.209 563.154 167.409 564.687 165.809C566.22 164.209 566.987 162.242 566.987 159.909V128.909H586.887V181.709H570.587ZM624.086 127.709C631.153 127.709 637.12 129.109 641.986 131.909C646.92 134.642 649.386 138.909 649.386 144.709H630.886C630.886 142.776 630.02 141.409 628.286 140.609C627.086 139.942 625.586 139.609 623.786 139.609C618.986 139.609 616.586 140.742 616.586 143.009C616.586 144.276 617.42 145.176 619.086 145.709C620.753 146.242 623.486 146.809 627.286 147.409C631.953 148.076 635.853 148.876 638.986 149.809C642.12 150.676 644.853 152.276 647.186 154.609C649.52 156.876 650.686 160.076 650.686 164.209C650.686 170.942 648.153 175.742 643.086 178.609C638.086 181.476 631.52 182.909 623.386 182.909C618.72 182.909 614.32 182.276 610.186 181.009C606.053 179.676 602.686 177.642 600.086 174.909C597.486 172.176 596.186 168.709 596.186 164.509H614.686V164.909C614.753 167.176 615.686 168.776 617.486 169.709C619.353 170.576 621.32 171.009 623.386 171.009C628.92 171.009 631.686 169.709 631.686 167.109C631.686 165.776 630.82 164.809 629.086 164.209C627.353 163.609 624.52 162.976 620.586 162.309C615.853 161.509 611.953 160.642 608.886 159.709C605.886 158.776 603.253 157.209 600.986 155.009C598.72 152.742 597.586 149.609 597.586 145.609C597.586 139.142 600.02 134.542 604.886 131.809C609.82 129.076 616.22 127.709 624.086 127.709Z" fill="#2B2F3F"/>
</svg>
